<svg id="SvgjsSvg1061" width="288" height="288" xmlns="http://www.w3.org/2000/svg" version="1.1" xmlns:xlink="http://www.w3.org/1999/xlink" xmlns:svgjs="http://svgjs.com/svgjs"><defs id="SvgjsDefs1062"></defs><g id="SvgjsG1063"><svg xmlns="http://www.w3.org/2000/svg" fill="none" viewBox="0 0 512 512" width="288" height="288"><path fill="#8bd5ca" fill-rule="evenodd" d="M384.304 39.0418L385.879 177.392 265.209 235.319 263.721 104.69 384.304 39.0418zM505.269 257.047L385.814 325.374 266.288 256.939 385.752 194.187 505.269 257.047zM245.04 257.047L125.585 325.374 6.05861 256.939 125.523 194.187 245.04 257.047zM124.243 38.4753L248.229 99.881 245.059 233.697 127.993 175.719 124.243 38.4753zM387.678 473.525L263.692 412.119 266.862 278.302 383.928 336.281 387.678 473.525zM128.525 474.77L126.949 336.42 247.62 278.493 249.108 409.121 128.525 474.77z" clip-rule="evenodd" class="colorfff svgShape"></path></svg></g></svg>